<?xml version="1.0" standalone="no"?>
<!DOCTYPE svg PUBLIC "-//W3C//DTD SVG 20010904//EN"
 "http://www.w3.org/TR/2001/REC-SVG-20010904/DTD/svg10.dtd">
<svg version="1.0" xmlns="http://www.w3.org/2000/svg"
 width="288.000000pt" height="199.000000pt" viewBox="0 0 288.000000 199.000000"
 preserveAspectRatio="xMidYMid meet">

<g transform="translate(0.000000,199.000000) scale(0.100000,-0.100000)"
fill="#000000" stroke="none">
<path d="M1290 1939 c-224 -13 -491 -80 -683 -173 -136 -66 -241 -139 -338
-235 -94 -95 -156 -190 -197 -303 -24 -67 -27 -86 -26 -223 0 -112 4 -166 17
-213 131 -469 667 -771 1368 -772 548 0 1004 178 1235 483 60 80 128 222 148
314 21 94 21 279 1 358 -76 295 -360 547 -760 675 -240 76 -480 104 -765 89z
m506 -78 c145 -27 268 -63 382 -112 100 -43 263 -137 269 -155 5 -17 -148 -63
-252 -76 -124 -16 -241 5 -406 71 -239 95 -403 93 -571 -9 -37 -22 -80 -40
-95 -40 -16 0 -60 -9 -98 -19 -119 -33 -152 -34 -258 -11 -121 26 -317 88
-317 99 0 26 231 142 379 191 100 33 250 65 364 80 128 16 478 5 603 -19z
m-113 -289 c45 -16 121 -44 169 -61 182 -66 353 -64 557 5 l104 36 44 -44 c99
-96 185 -239 207 -344 7 -30 5 -32 -31 -38 -76 -14 -289 -79 -402 -123 -64
-24 -124 -47 -133 -50 -12 -4 -60 31 -155 114 -373 324 -468 393 -538 393 -57
0 -120 -30 -212 -100 -107 -81 -138 -98 -189 -105 -41 -5 -105 13 -111 31 -6
19 218 237 275 267 118 64 268 70 415 19z m-1190 -38 c132 -46 275 -82 357
-89 49 -5 84 -1 144 14 44 12 83 21 88 21 6 0 -24 -37 -66 -82 -85 -93 -94
-122 -51 -157 33 -25 117 -43 164 -35 49 9 77 24 168 92 178 135 224 136 384
7 151 -122 489 -417 499 -436 16 -29 12 -49 -19 -80 -21 -21 -39 -29 -65 -29
-30 0 -50 14 -152 105 -65 58 -121 105 -125 105 -30 0 -7 -35 86 -130 84 -85
108 -115 108 -136 -1 -40 -52 -84 -98 -84 -30 0 -48 12 -126 85 -50 47 -95 85
-99 85 -27 0 -12 -28 60 -109 44 -50 80 -97 80 -105 0 -21 -58 -66 -85 -66
-16 0 -53 25 -104 70 -43 38 -84 70 -90 70 -23 0 -9 -24 49 -91 57 -63 60 -68
41 -78 -25 -14 -89 -14 -129 0 -30 10 -30 11 -25 67 3 44 0 65 -15 92 -23 43
-76 80 -112 80 -25 0 -28 4 -34 44 -4 25 -16 56 -27 70 -24 31 -99 60 -136 53
-22 -4 -35 1 -58 23 -48 45 -133 57 -184 26 -6 -4 -26 3 -44 16 -38 27 -111
30 -146 6 -22 -16 -27 -15 -100 22 -102 51 -197 84 -371 129 -104 27 -146 42
-148 54 -4 21 38 124 79 194 30 49 179 213 194 213 3 0 52 -16 108 -36z m-243
-478 c151 -38 306 -92 372 -127 42 -24 43 -25 48 -86 5 -65 22 -93 72 -119 15
-8 40 -14 55 -14 23 0 31 -8 46 -40 22 -47 72 -81 124 -83 28 -2 44 -9 62 -30
32 -38 72 -57 119 -57 31 0 43 -5 56 -25 42 -64 136 -84 210 -44 32 17 44 19
63 10 75 -34 163 -31 206 7 10 9 37 16 62 17 50 1 89 24 120 73 16 24 27 31
53 32 67 0 130 49 146 113 5 22 12 27 39 27 90 0 164 101 126 172 -6 11 -9 22
-6 24 11 11 299 107 405 135 64 17 126 33 136 36 18 5 19 1 13 -73 -19 -267
-200 -488 -531 -649 -229 -112 -451 -163 -747 -172 -262 -8 -476 22 -697 98
-338 117 -571 308 -669 549 -38 96 -55 260 -26 260 5 0 69 -15 143 -34z m585
-136 c15 -6 32 -24 40 -44 l15 -34 31 29 c25 24 40 29 78 29 51 0 82 -22 96
-67 7 -27 13 -28 39 -8 27 20 65 19 103 -4 36 -22 48 -61 38 -120 l-6 -38 54
5 c49 4 56 2 85 -28 27 -26 32 -39 32 -77 0 -36 -6 -50 -29 -74 -24 -24 -38
-29 -76 -29 -38 0 -52 5 -76 29 -16 16 -32 43 -35 60 -7 34 -15 38 -34 16 -16
-19 -63 -19 -99 0 -30 15 -41 33 -41 66 0 22 -6 23 -47 8 -65 -22 -133 37
-133 116 0 25 -14 34 -25 15 -3 -5 -23 -10 -44 -10 -38 0 -71 24 -84 62 -10
27 13 77 42 93 32 17 42 18 76 5z"/>
</g>
</svg>
